<svg width="16" height="16" viewBox="0 0 16 16" fill="none" xmlns="http://www.w3.org/2000/svg">
<path d="M13.8538 8.3536L9.35375 12.8536C9.25993 12.9474 9.13268 13.0001 9 13.0001C8.86732 13.0001 8.74007 12.9474 8.64625 12.8536C8.55243 12.7598 8.49972 12.6325 8.49972 12.4999C8.49972 12.3672 8.55243 12.2399 8.64625 12.1461L12.2931 8.49985H2.5C2.36739 8.49985 2.24021 8.44717 2.14645 8.3534C2.05268 8.25964 2 8.13246 2 7.99985C2 7.86724 2.05268 7.74007 2.14645 7.6463C2.24021 7.55253 2.36739 7.49985 2.5 7.49985H12.2931L8.64625 3.8536C8.55243 3.75978 8.49972 3.63253 8.49972 3.49985C8.49972 3.36717 8.55243 3.23992 8.64625 3.1461C8.74007 3.05228 8.86732 2.99957 9 2.99957C9.13268 2.99957 9.25993 3.05228 9.35375 3.1461L13.8538 7.6461C13.9002 7.69254 13.9371 7.74768 13.9623 7.80838C13.9874 7.86908 14.0004 7.93414 14.0004 7.99985C14.0004 8.06556 13.9874 8.13062 13.9623 8.19132C13.9371 8.25202 13.9002 8.30716 13.8538 8.3536Z" fill="#97CFFD"/>
</svg>
