<svg width="24" height="24" viewBox="0 0 24 24" fill="none" xmlns="http://www.w3.org/2000/svg">
<path d="M16.5 21.75C16.5 21.9489 16.421 22.1397 16.2803 22.2803C16.1397 22.421 15.9489 22.5 15.75 22.5H8.25C8.05109 22.5 7.86032 22.421 7.71967 22.2803C7.57902 22.1397 7.5 21.9489 7.5 21.75C7.5 21.5511 7.57902 21.3603 7.71967 21.2197C7.86032 21.079 8.05109 21 8.25 21H15.75C15.9489 21 16.1397 21.079 16.2803 21.2197C16.421 21.3603 16.5 21.5511 16.5 21.75ZM20.25 9.75C20.2532 11.0003 19.9708 12.2348 19.4242 13.3593C18.8776 14.4838 18.0814 15.4686 17.0963 16.2384C16.912 16.3796 16.7626 16.5611 16.6592 16.7689C16.5559 16.9767 16.5014 17.2054 16.5 17.4375V18C16.5 18.3978 16.342 18.7794 16.0607 19.0607C15.7794 19.342 15.3978 19.5 15 19.5H9C8.60218 19.5 8.22065 19.342 7.93934 19.0607C7.65804 18.7794 7.5 18.3978 7.5 18V17.4375C7.49985 17.2082 7.44712 16.982 7.34587 16.7762C7.24462 16.5705 7.09754 16.3907 6.91594 16.2506C5.93325 15.4853 5.13754 14.5064 4.58904 13.3882C4.04054 12.2699 3.75362 11.0415 3.75 9.79594C3.72563 5.32781 7.33688 1.60687 11.8013 1.5C12.9013 1.47349 13.9955 1.6673 15.0195 2.07002C16.0434 2.47273 16.9765 3.07622 17.7638 3.84496C18.5511 4.6137 19.1766 5.53216 19.6035 6.54627C20.0305 7.56038 20.2503 8.64967 20.25 9.75ZM15.5306 9.96937C15.461 9.89964 15.3783 9.84432 15.2872 9.80658C15.1962 9.76884 15.0986 9.74941 15 9.74941C14.9014 9.74941 14.8038 9.76884 14.7128 9.80658C14.6217 9.84432 14.539 9.89964 14.4694 9.96937L12 12.4397L9.53063 9.96937C9.3899 9.82864 9.19902 9.74958 9 9.74958C8.80098 9.74958 8.61011 9.82864 8.46938 9.96937C8.32864 10.1101 8.24958 10.301 8.24958 10.5C8.24958 10.699 8.32864 10.8899 8.46938 11.0306L11.25 13.8103V17.25C11.25 17.4489 11.329 17.6397 11.4697 17.7803C11.6103 17.921 11.8011 18 12 18C12.1989 18 12.3897 17.921 12.5303 17.7803C12.671 17.6397 12.75 17.4489 12.75 17.25V13.8103L15.5306 11.0306C15.6004 10.961 15.6557 10.8783 15.6934 10.7872C15.7312 10.6962 15.7506 10.5986 15.7506 10.5C15.7506 10.4014 15.7312 10.3038 15.6934 10.2128C15.6557 10.1217 15.6004 10.039 15.5306 9.96937Z" fill="#777E90"/>
</svg>
